<svg width="492" height="492" viewBox="0 0 492 492" fill="none" xmlns="http://www.w3.org/2000/svg">
<rect width="492" height="492" rx="75" fill="url(#paint0_linear_99_2)"/>
<mask id="mask0_99_2" style="mask-type:alpha" maskUnits="userSpaceOnUse" x="0" y="0" width="492" height="492">
<rect width="492" height="492" rx="75" fill="url(#paint1_linear_99_2)"/>
</mask>
<g mask="url(#mask0_99_2)">
<path d="M21.1613 203.257H42.5532V224.649H21.1613V203.257ZM21.1613 181.865H42.5532V203.257H21.1613V181.865ZM42.5532 181.865H63.9451V203.257H42.5532V181.865ZM42.5532 203.257H63.9451V224.649H42.5532V203.257ZM42.5532 224.649H63.9451V246.041H42.5532V224.649ZM42.5532 246.041H63.9451V267.432H42.5532V246.041ZM42.5532 267.432H63.9451V288.824H42.5532V267.432ZM21.1613 267.432H42.5532V288.824H21.1613V267.432ZM21.1613 246.041H42.5532V267.432H21.1613V246.041ZM21.1613 224.649H42.5532V246.041H21.1613V224.649ZM21.1613 288.824H42.5532V310.216H21.1613V288.824ZM42.5532 288.824H63.9451V310.216H42.5532V288.824ZM42.5532 310.216H63.9451V331.608H42.5532V310.216ZM42.5532 331.608H63.9451V353H42.5532V331.608ZM21.1613 331.608H42.5532V353H21.1613V331.608ZM21.1613 310.216H42.5532V331.608H21.1613V310.216ZM128.121 331.608H149.513V353H128.121V331.608ZM149.513 310.216H170.905V331.608H149.513V310.216ZM149.513 288.824H170.905V310.216H149.513V288.824ZM149.513 267.432H170.905V288.824H149.513V267.432ZM149.513 246.041H170.905V267.432H149.513V246.041ZM149.513 224.649H170.905V246.041H149.513V224.649ZM149.513 203.257H170.905V224.649H149.513V203.257ZM128.121 246.041H149.513V267.432H128.121V246.041ZM128.121 267.432H149.513V288.824H128.121V267.432ZM128.121 288.824H149.513V310.216H128.121V288.824ZM128.121 310.216H149.513V331.608H128.121V310.216ZM128.121 224.649H149.513V246.041H128.121V224.649ZM63.9451 203.257H85.337V224.649H63.9451V203.257ZM85.337 203.257H106.729V224.649H85.337V203.257ZM106.729 203.257H128.121V224.649H106.729V203.257ZM106.729 181.865H128.121V203.257H106.729V181.865ZM128.121 181.865H149.513V203.257H128.121V181.865ZM128.121 203.257H149.513V224.649H128.121V203.257ZM85.337 181.865H106.729V203.257H85.337V181.865ZM63.9451 331.608H85.337V353H63.9451V331.608ZM85.337 331.608H106.729V353H85.337V331.608ZM106.729 331.608H128.121V353H106.729V331.608ZM106.729 310.216H128.121V331.608H106.729V310.216ZM85.337 310.216H106.729V331.608H85.337V310.216ZM63.9451 310.216H85.337V331.608H63.9451V310.216ZM21.1613 353H42.5532V374.392H21.1613V353ZM42.5532 353H63.9451V374.392H42.5532V353ZM42.5532 374.392H63.9451V395.784H42.5532V374.392ZM21.1613 374.392H42.5532V395.784H21.1613V374.392ZM342.095 203.257V224.649H320.704V203.257H342.095ZM342.095 181.865V203.257H320.704V181.865H342.095ZM320.704 181.865V203.257H299.312V181.865H320.704ZM320.704 203.257V224.649H299.312V203.257H320.704ZM320.704 224.649V246.041H299.312V224.649H320.704ZM320.704 246.041V267.432H299.312V246.041H320.704ZM320.704 267.432V288.824H299.312V267.432H320.704ZM342.095 267.432V288.824H320.704V267.432H342.095ZM342.095 246.041V267.432H320.704V246.041H342.095ZM342.095 224.649V246.041H320.704V224.649H342.095ZM342.095 288.824V310.216H320.704V288.824H342.095ZM320.704 288.824V310.216H299.312V288.824H320.704ZM320.704 310.216V331.608H299.312V310.216H320.704ZM320.704 331.608V353H299.312V331.608H320.704ZM342.095 331.608V353H320.704V331.608H342.095ZM342.095 310.216V331.608H320.704V310.216H342.095ZM235.136 331.608V353H213.744V331.608H235.136ZM213.744 310.216V331.608H192.352V310.216H213.744ZM213.744 288.824V310.216H192.352V288.824H213.744ZM213.744 267.432V288.824H192.352V267.432H213.744ZM213.744 246.041V267.432H192.352V246.041H213.744ZM213.744 224.649V246.041H192.352V224.649H213.744ZM213.744 203.257V224.649H192.352V203.257H213.744ZM235.136 246.041V267.432H213.744V246.041H235.136ZM235.136 267.432V288.824H213.744V267.432H235.136ZM235.136 288.824V310.216H213.744V288.824H235.136ZM235.136 310.216V331.608H213.744V310.216H235.136ZM235.136 224.649V246.041H213.744V224.649H235.136ZM256.528 203.257V224.649H235.136V203.257H256.528ZM256.528 181.865V203.257H235.136V181.865H256.528ZM235.136 181.865V203.257H213.744V181.865H235.136ZM235.136 203.257V224.649H213.744V203.257H235.136ZM277.92 181.865V203.257H256.528V181.865H277.92ZM342.095 139.081V160.473H320.704V139.081H342.095ZM320.704 139.081V160.473H299.312V139.081H320.704ZM320.704 160.473V181.865H299.312V160.473H320.704ZM342.095 160.473V181.865H320.704V160.473H342.095ZM277.92 331.608V353H256.528V331.608H277.92ZM256.528 331.608V353H235.136V331.608H256.528ZM256.528 310.216V331.608H235.136V310.216H256.528ZM277.92 310.216V331.608H256.528V310.216H277.92ZM299.312 310.216V331.608H277.92V310.216H299.312ZM299.312 181.865V203.257H277.92V181.865H299.312ZM299.312 203.257V224.649H277.92V203.257H299.312ZM277.92 203.257V224.649H256.528V203.257H277.92ZM449.111 139.081H470.503V160.473H449.111V139.081ZM449.111 160.473H470.503V181.865H449.111V160.473ZM427.719 160.473H449.111V181.865H427.719V160.473ZM427.719 139.081H449.111V160.473H427.719V139.081ZM406.327 139.081H427.719V160.473H406.327V139.081ZM406.327 160.473H427.719V181.865H406.327V160.473ZM406.327 181.865H427.719V203.257H406.327V181.865ZM384.935 160.473H406.327V181.865H384.935V160.473ZM384.935 181.865H406.327V203.257H384.935V181.865ZM384.935 203.257H406.327V224.649H384.935V203.257ZM384.935 224.649H406.327V246.041H384.935V224.649ZM406.327 224.649H427.719V246.041H406.327V224.649ZM406.327 203.257H427.719V224.649H406.327V203.257ZM384.935 331.608H406.327V353H384.935V331.608ZM384.935 310.216H406.327V331.608H384.935V310.216ZM384.935 288.824H406.327V310.216H384.935V288.824ZM384.935 267.432H406.327V288.824H384.935V267.432ZM384.935 246.041H406.327V267.432H384.935V246.041ZM406.327 246.041H427.719V267.432H406.327V246.041ZM406.327 267.432H427.719V288.824H406.327V267.432ZM406.327 288.824H427.719V310.216H406.327V288.824ZM406.327 310.216H427.719V331.608H406.327V310.216ZM406.327 331.608H427.719V353H406.327V331.608ZM363.543 203.257H384.935V224.649H363.543V203.257ZM427.719 203.257H449.111V224.649H427.719V203.257ZM449.111 203.257H470.503V224.649H449.111V203.257ZM363.543 224.649H384.935V246.041H363.543V224.649ZM427.719 224.649H449.111V246.041H427.719V224.649ZM449.111 224.649H470.503V246.041H449.111V224.649Z" fill="white"/>
</g>
<defs>
<linearGradient id="paint0_linear_99_2" x1="246" y1="0" x2="492" y2="522.5" gradientUnits="userSpaceOnUse">
<stop stop-color="#FFAD66"/>
<stop offset="1" stop-color="#E53935"/>
</linearGradient>
<linearGradient id="paint1_linear_99_2" x1="246" y1="0" x2="492" y2="522.5" gradientUnits="userSpaceOnUse">
<stop stop-color="#FFAD66"/>
<stop offset="1" stop-color="#E53935"/>
</linearGradient>
</defs>
</svg>
